<svg width="512" height="512" viewBox="0 0 512 512" fill="none" xmlns="http://www.w3.org/2000/svg" role="img" aria-label="青寓">
  <rect width="512" height="512" rx="116" fill="#F0FDFA"/>
  <path d="M96 222.5L256 102L416 222.5" stroke="#0F766E" stroke-width="44" stroke-linecap="round" stroke-linejoin="round"/>
  <path d="M142 222V392C142 414.1 159.9 432 182 432H330C352.1 432 370 414.1 370 392V222" fill="white"/>
  <path d="M142 222V392C142 414.1 159.9 432 182 432H330C352.1 432 370 414.1 370 392V222" stroke="#0F766E" stroke-width="32" stroke-linejoin="round"/>
  <path d="M214 432V318C214 294.8 232.8 276 256 276C279.2 276 298 294.8 298 318V432" fill="#CCFBF1" stroke="#0F766E" stroke-width="28"/>
  <path d="M204 230H308" stroke="#14B8A6" stroke-width="28" stroke-linecap="round"/>
  <path d="M206 180H306" stroke="#0369A1" stroke-width="22" stroke-linecap="round"/>
</svg>
